<?xml version="1.0" encoding="utf-8"?>
<svg xmlns="http://www.w3.org/2000/svg" viewBox="0 0 24 24" width="96" height="96">
  <path d="M8 5 A 3 3 0 0 0 5 8 A 3 3 0 0 0 8 11 A 3 3 0 0 0 11 8 A 3 3 0 0 0 8 5 z M 16 5 A 3 3 0 0 0 13 8 A 3 3 0 0 0 16 11 A 3 3 0 0 0 19 8 A 3 3 0 0 0 16 5 z M 3.7636719 9.0019531C3.3255313 9.0187812 2.3722031 9.1317031 1.7519531 9.7519531C0.92495313 10.578953 1.0019531 11.998047 1.0019531 11.998047C1.0019531 11.998047 2.4210469 12.075047 3.2480469 11.248047C4.0750469 10.421047 3.9980469 9.0019531 3.9980469 9.0019531C3.9980469 9.0019531 3.9097188 8.9963437 3.7636719 9.0019531 z M 8 13C5 13 1 14.464 1 16.5L1 18C1 18.552 1.448 19 2 19L14 19C14.552 19 15 18.552 15 18L15 16.5C15 14.464 11 13 8 13 z M 16 13C15.683 13 15.353484 13.019781 15.021484 13.050781C16.203484 13.915781 17 15.059 17 16.5L17 18C17 18.552 17.448 19 18 19L22 19C22.552 19 23 18.552 23 18L23 16.5C23 14.464 19 13 16 13 z" fill="#4CAF4F" />
</svg>