<?xml version="1.0" encoding="utf-8"?>
<svg xmlns="http://www.w3.org/2000/svg" viewBox="0 0 24 24" width="96" height="96">
  <path d="M14.001953 4.0019531C13.710328 4.0045781 13.418937 4.0678594 13.148438 4.1933594L9.8125 5.7363281C9.0025 6.1103281 8.6690781 7.0849531 9.0800781 7.8769531C9.4420781 8.5739531 10.265906 8.8920469 11.003906 8.6230469L13.994141 7.5332031L19.392578 12.767578C19.781578 13.145578 20 13.664078 20 14.205078L20 15L21 15C21.552 15 22 14.552 22 14L22 6.3867188C22 5.7037188 21.330594 5.2215 20.683594 5.4375L19 6L14.859375 4.1777344C14.586375 4.0577344 14.293578 3.9993281 14.001953 4.0019531 z M 3 5C2.448 5 2 5.448 2 6L2 15L3 15L9.0761719 20.316406C10.159172 21.263406 11.791594 21.208406 12.808594 20.191406L17.046875 15.953125C17.572875 15.427125 17.834797 14.739781 17.841797 14.050781L13.501953 9.84375L11.6875 10.503906C11.2945 10.646906 10.88475 10.71875 10.46875 10.71875C9.13375 10.71875 7.9206875 9.9838281 7.3046875 8.7988281C6.8576875 7.9388281 6.7827031 6.9189531 7.0957031 6.0019531C7.2217031 5.6349531 7.4183438 5.304 7.6523438 5L3 5 z" fill="#4CAF4F" />
</svg>