<?xml version="1.0" encoding="utf-8"?>
<svg xmlns="http://www.w3.org/2000/svg" viewBox="0 0 24 24" width="96" height="96">
  <path d="M4 4C2.895 4 2 4.895 2 6C2 6.552 2.448 7 3 7L21 7C21.552 7 22 6.552 22 6C22 4.895 21.105 4 20 4L4 4 z M 3 10C2.448 10 2 10.448 2 11L2 18C2 19.105 2.895 20 4 20L20 20C21.105 20 22 19.105 22 18L22 11C22 10.448 21.552 10 21 10L3 10 z M 15 13C15.366 13 15.705 13.106344 16 13.277344C16.295 13.106344 16.634 13 17 13C18.105 13 19 13.895 19 15C19 16.105 18.105 17 17 17C16.634 17 16.295 16.893656 16 16.722656C15.705 16.893656 15.366 17 15 17C13.895 17 13 16.105 13 15C13 13.895 13.895 13 15 13 z M 16 16.722656 A 1 1.723 0 0 0 17 15 A 1 1.723 0 0 0 16 13.277344 A 1 1.723 0 0 0 15 15 A 1 1.723 0 0 0 16 16.722656 z" fill="#4CAF4F" />
</svg>